<svg id="master_layers" data-name="master layers" xmlns="http://www.w3.org/2000/svg" xmlns:xlink="http://www.w3.org/1999/xlink" viewBox="0 0 252 144"><defs><style>.cls-1{fill:none;}.cls-2{clip-path:url(#clip-path);}.cls-3{font-size:24.85px;fill:#231f20;font-family:Amethyst;}.cls-4{fill:url(#Orange_Yellow);}.cls-5{fill:url(#Orange_Yellow-2);}.cls-6{fill:#00aeef;}</style><clipPath id="clip-path"><rect class="cls-1" width="252" height="144"/></clipPath><linearGradient id="Orange_Yellow" x1="134.48" y1="5.7" x2="154.7" y2="5.7" gradientTransform="matrix(1.18, 0.41, -0.5, 1.46, -63.57, -21.11)" gradientUnits="userSpaceOnUse"><stop offset="0" stop-color="#fff33b"/><stop offset="0.04" stop-color="#fee72e"/><stop offset="0.12" stop-color="#fed51b"/><stop offset="0.2" stop-color="#fdca10"/><stop offset="0.28" stop-color="#fdc70c"/><stop offset="0.67" stop-color="#f3903f"/><stop offset="0.89" stop-color="#ed683c"/><stop offset="1" stop-color="#e93e3a"/></linearGradient><linearGradient id="Orange_Yellow-2" x1="125.88" y1="8.1" x2="146.11" y2="8.1" gradientTransform="matrix(-1.18, 0.41, 0.5, 1.46, 282.43, -21.11)" xlink:href="#Orange_Yellow"/></defs><title>designer</title><g class="cls-2"><text class="cls-3" transform="translate(28.12 88.25)">Designer </text><text class="cls-3" transform="translate(28.12 88.25)">Designer </text><g id="Layer_1" data-name="Layer 1"><path class="cls-4" d="M114.89,56l-3.11-8.45-15.61-15L104,48.68l5.46,4.84L103.24,51l-3.73.86,12.43,7.62,2.7-2.68Z"/><path class="cls-5" d="M115.36,56l3.11-8.45,15.61-15-7.85,16.12-5.46,4.84L127,51l3.73.86-12.43,7.62-2.7-2.68Z"/><polygon class="cls-6" points="116.52 55.75 115.36 60.69 114.2 55.75 115.36 50.82 116.52 55.75"/></g></g></svg>